<?xml version="1.0" encoding="utf-8"?>
<!-- Generator: Adobe Illustrator 16.0.0, SVG Export Plug-In . SVG Version: 6.00 Build 0)  -->
<!DOCTYPE svg PUBLIC "-//W3C//DTD SVG 1.1//EN" "http://www.w3.org/Graphics/SVG/1.1/DTD/svg11.dtd" [
	<!ENTITY ns_flows "http://ns.adobe.com/Flows/1.0/">
	<!ENTITY ns_extend "http://ns.adobe.com/Extensibility/1.0/">
	<!ENTITY ns_ai "http://ns.adobe.com/AdobeIllustrator/10.0/">
	<!ENTITY ns_graphs "http://ns.adobe.com/Graphs/1.0/">
]>
<svg version="1.1" xmlns:x="&ns_extend;" xmlns:i="&ns_ai;" xmlns:graph="&ns_graphs;"
	 xmlns="http://www.w3.org/2000/svg" xmlns:xlink="http://www.w3.org/1999/xlink" xmlns:a="http://ns.adobe.com/AdobeSVGViewerExtensions/3.0/"
	 x="0px" y="0px" width="200px" height="34px" viewBox="0 0 200 34" style="enable-background:new 0 0 200 34;"
	 xml:space="preserve">
<g id="Layer_1">
	<g>
		<g>
			<path style="fill:#E81950;" d="M25.46,1.56h16.36v16.36H25.46V1.56z M46.5,1.56h2.34V3.9h2.34V1.56h4.68V3.9h-2.34v2.33h2.34
				v2.34h-2.34v2.34h-2.34V6.23h-2.34v4.68H46.5V8.58h-2.34V6.23h2.34V1.56z M27.79,3.9v11.69h11.71V3.9H27.79z M30.13,6.23h7.02
				v7.02h-7.02V6.23z M48.84,10.92h2.34v2.33h-2.34V10.92z M53.52,10.92h2.34v9.35h-2.34v2.34H37.15v2.34h-2.34v-4.68h9.35v-4.67
				h2.34v2.33h2.34v2.34h2.34v-2.34h2.34V10.92z M48.84,15.59h2.34v2.33h-2.34V15.59z M25.46,20.26h7.01v2.34h-4.68v2.34h7.02v2.34
				h-7.02v2.33h-2.33V20.26z M55.86,20.26h4.67v4.68h-2.34v-2.34h-2.33V20.26z M67.55,20.26h2.33v2.34h-2.33V20.26z M65.21,22.61
				h2.34v2.34h-2.34V22.61z M72.22,22.61h2.34v4.68h-4.68v-2.34h2.34V22.61z M39.49,24.95h2.33v2.34h-2.33V24.95z M44.16,24.95h2.34
				v2.34h-2.34V24.95z M53.52,24.95h2.34v2.34h-2.34V24.95z M62.87,24.95h2.34v2.34h-2.34V24.95z M34.81,27.29h4.68v2.33h2.33v-2.33
				h2.34v4.67h-7.01v-2.34h-2.34V27.29z M67.55,17.92h2.33v2.33h-2.33V17.92z M72.22,17.92h2.34v2.33h-2.34V17.92z M62.87,15.58
				h2.34v-2.34h7.01v4.68h-2.34v-2.34h-2.33v2.34h-4.68V15.58z M58.19,27.29h2.34v4.67h-2.34V27.29z M30.13,29.62h4.68v2.34h-4.68
				V29.62z M53.52,29.62h2.34v2.34h-2.34V29.62z M69.88,3.9h4.68v4.68h-2.34V6.23h-2.34v2.34h-4.67V6.23h2.34V3.9h-2.34V1.56h4.67
				V3.9z M60.53,3.9h-2.34V1.56h2.34V3.9z M62.87,8.58h-4.68V6.23h2.34V3.9h2.34V8.58z M60.54,10.92H58.2V8.58h2.34V10.92z
				 M62.87,15.6H58.2v-2.34h2.34v-2.34h2.33V15.6z"/>
		</g>
		<g>
			<path style="fill:#E81950;" d="M123.68,31.96h-7.02v-2.34h4.68v-2.33h-7.02v-2.34h7.02v-2.34h2.34V31.96z M93.27,31.96h-4.68
				v-4.67h2.34v2.33h2.34V31.96z M81.58,31.96h-2.34v-2.34h2.34V31.96z M83.93,29.62h-2.34v-2.33h2.34V29.62z M76.9,29.62h-2.34
				v-4.67h4.68v2.34H76.9V29.62z M109.65,27.29h-2.34v-2.34h2.34V27.29z M104.97,27.29h-2.34v-2.34h2.34V27.29z M100.28,27.29h-2.33
				v-7.02h-2.34v-4.67h-2.34v4.67h-2.34v-2.34h-2.34v2.34h-2.34v-4.67h-2.33v-2.34h2.33V8.58h4.68v2.34h2.34v2.33h2.34v-2.33h4.67
				V8.58h2.34v2.34h2.34v9.35h-4.68V27.29z M95.61,27.29h-2.34v-2.34h2.34V27.29z M86.25,27.29h-2.33v-2.34h2.33V27.29z
				 M107.31,8.58h-2.34V6.23h2.34V8.58z M109.65,6.23h-2.34V3.9h2.34V6.23z M111.99,3.9h-2.34V1.56h2.34V3.9z M114.32,24.95h-4.67
				v-2.34h-2.34v2.34h-2.34v-4.68h7.02v2.34h2.33V24.95z M90.93,24.95h-2.34v-4.68h2.34V24.95z M119,22.61h-4.68v-2.34H119V22.61z
				 M95.61,22.61h-2.34v-2.34h2.34V22.61z M86.25,22.61h-4.67v-4.68h2.34v2.34h2.33V22.61z M79.24,22.61h-4.68v-2.34h2.34v-2.34
				h-2.34v-2.33h4.68V22.61z M102.62,17.92v-4.67h-2.34v4.67H102.62z M90.93,15.59v-2.34h-2.34v2.34H90.93z M79.24,13.25h-4.68
				v-2.33h2.34V8.58h4.68v2.34h-2.34V13.25z M104.97,8.58h-2.34V3.9h-4.67V1.56h7.01V8.58z M100.28,8.58h-2.33V6.23h2.33V8.58z
				 M95.61,8.58h-2.34V6.23h2.34V8.58z M86.25,8.58h-4.67V6.23h2.34V3.9h-2.34V1.56h4.67V3.9h2.34V1.56h2.34v4.67h-4.68V8.58z
				 M76.9,8.58h-2.34V6.23h2.34V8.58z M79.24,6.23H76.9V3.9h-2.34V1.56h4.68V6.23z M114.32,10.91h-2.34V8.57h-2.33V6.23h4.67V10.91z
				 M121.34,13.25h-4.68v-2.33H119V8.58h4.68v2.34h-2.34V13.25z M119,8.58h-2.34V6.23H119V8.58z M121.34,6.23H119V3.9h-2.34V1.56
				h4.68V6.23z M116.66,13.26v4.67h-2.34V15.6h-2.34v-4.68h2.34v2.34H116.66z M111.97,15.6v2.33h-2.33V15.6H111.97z M109.65,13.26
				v2.34h-2.34v2.33h-2.34v-4.67H109.65z M95.61,3.9h-2.34V1.56h2.34V3.9z"/>
		</g>
		<g>
			<path style="fill:#E81950;" d="M123.68,1.56h7.02V3.9h-4.68v2.33h7.02v2.34h-7.02v2.34h-2.34V1.56z M154.08,1.56h4.68v4.67h-2.34
				V3.9h-2.34V1.56z M165.77,1.56h2.34V3.9h-2.34V1.56z M163.43,3.9h2.34v2.33h-2.34V3.9z M170.45,3.9h2.34v4.68h-4.68V6.23h2.34
				V3.9z M137.71,6.23h2.34v2.34h-2.34V6.23z M142.39,6.23h2.34v2.34h-2.34V6.23z M147.07,6.23h2.33v7.02h2.34v4.67h2.34v-4.67h2.34
				v2.34h2.34v-2.34h2.34v4.67h2.33v2.34h-2.33v4.67h-4.68v-2.34h-2.34v-2.33h-2.34v2.33h-4.67v2.34h-2.34v-2.34h-2.34v-9.35h4.68
				V6.23z M151.74,6.23h2.34v2.34h-2.34V6.23z M161.1,6.23h2.33v2.34h-2.33V6.23z M140.05,24.95h2.34v2.34h-2.34V24.95z
				 M137.71,27.29h2.34v2.33h-2.34V27.29z M135.37,29.62h2.34v2.34h-2.34V29.62z M133.04,8.58h4.67v2.34h2.34V8.58h2.34v4.68h-7.02
				v-2.34h-2.33V8.58z M156.42,8.58h2.34v4.68h-2.34V8.58z M128.36,10.92h4.68v2.34h-4.68V10.92z M151.74,10.92h2.34v2.34h-2.34
				V10.92z M161.1,10.92h4.67v4.68h-2.34v-2.34h-2.33V10.92z M168.11,10.92h4.68v2.34h-2.34v2.34h2.34v2.33h-4.68V10.92z
				 M144.73,15.6v4.67h2.34V15.6H144.73z M156.42,17.93v2.34h2.34v-2.34H156.42z M168.11,20.27h4.68v2.33h-2.34v2.34h-4.68v-2.34
				h2.34V20.27z M142.39,24.95h2.34v4.67h4.67v2.34h-7.01V24.95z M147.07,24.95h2.33v2.34h-2.33V24.95z M151.74,24.95h2.34v2.34
				h-2.34V24.95z M161.1,24.95h4.67v2.34h-2.34v2.33h2.34v2.34h-4.67v-2.34h-2.34v2.34h-2.34v-4.67h4.68V24.95z M170.45,24.95h2.34
				v2.34h-2.34V24.95z M168.11,27.29h2.34v2.33h2.34v2.34h-4.68V27.29z M133.04,22.61h2.34v2.34h2.33v2.34h-4.67V22.61z
				 M126.02,20.27h4.68v2.33h-2.34v2.34h-4.68v-2.34h2.34V20.27z M128.36,24.95h2.34v2.34h-2.34V24.95z M126.02,27.29h2.34v2.33
				h2.34v2.34h-4.68V27.29z M130.7,20.26v-4.67h2.34v2.33h2.34v4.68h-2.34v-2.34H130.7z M135.38,17.92v-2.33h2.33v2.33H135.38z
				 M137.71,20.26v-2.34h2.34v-2.33h2.34v4.67H137.71z M151.74,29.62h2.34v2.34h-2.34V29.62z"/>
		</g>
		<rect x="177.04" y="1.56" style="fill:#E81950;" width="2.42" height="30.4"/>
		<rect x="185.5" y="1.56" style="fill:#E81950;" width="0.87" height="30.4"/>
		<rect x="191.79" y="1.56" style="fill:#E81950;" width="2.43" height="30.4"/>
		<rect x="197.46" y="1.56" style="fill:#E81950;" width="0.87" height="30.4"/>
		<rect x="181.07" y="1.56" style="fill:#E81950;" width="3.56" height="30.4"/>
		<rect x="187.01" y="1.56" style="fill:#E81950;" width="3.55" height="30.4"/>
		<rect x="11.15" y="1.56" style="fill:#E81950;" width="0.88" height="30.4"/>
		<rect x="17.46" y="1.56" style="fill:#E81950;" width="2.41" height="30.4"/>
		<rect x="23.12" y="1.56" style="fill:#E81950;" width="0.87" height="30.4"/>
		<rect x="4.17" y="1.56" style="fill:#E81950;" width="0.87" height="30.4"/>
		<rect x="1.73" y="1.56" style="fill:#E81950;" width="0.87" height="30.4"/>
		<rect x="6.73" y="1.56" style="fill:#E81950;" width="3.55" height="30.4"/>
		<rect x="12.66" y="1.56" style="fill:#E81950;" width="3.55" height="30.4"/>
	</g>
</g>
<g id="map">
</g>
<g id="marker_position_02">
</g>
<g id="marker">
</g>
<g id="markers">
</g>
<g id="filters">
</g>
<g id="connections">
</g>
<g id="headings">
</g>
<g id="data">
</g>
<g id="technos">
</g>
</svg>
